<mxfile host="65bd71144e">
    <diagram id="PU1_XfPxpqYr-J6KSZ_v" name="第 1 页">
        <mxGraphModel dx="733" dy="419" grid="1" gridSize="10" guides="1" tooltips="1" connect="1" arrows="1" fold="1" page="1" pageScale="1" pageWidth="827" pageHeight="1169" math="0" shadow="0">
            <root>
                <mxCell id="0"/>
                <mxCell id="1" parent="0"/>
                <mxCell id="2" value="" style="ellipse;html=1;shape=startState;fillColor=#000000;strokeColor=#ff0000;" vertex="1" parent="1">
                    <mxGeometry x="125" y="100" width="30" height="30" as="geometry"/>
                </mxCell>
                <mxCell id="3" value="" style="edgeStyle=orthogonalEdgeStyle;html=1;verticalAlign=bottom;endArrow=open;endSize=8;strokeColor=#ff0000;entryX=0.5;entryY=0;entryDx=0;entryDy=0;" edge="1" source="2" parent="1" target="10">
                    <mxGeometry relative="1" as="geometry">
                        <mxPoint x="140" y="190" as="targetPoint"/>
                    </mxGeometry>
                </mxCell>
                <mxCell id="6" value="借书" style="text;align=center;fontStyle=1;verticalAlign=middle;spacingLeft=3;spacingRight=3;strokeColor=none;rotatable=0;points=[[0,0.5],[1,0.5]];portConstraint=eastwest;" vertex="1" parent="1">
                    <mxGeometry x="100" y="70" width="80" height="26" as="geometry"/>
                </mxCell>
                <mxCell id="7" value="&lt;font color=&quot;#000000&quot;&gt;有效？&lt;/font&gt;" style="rhombus;whiteSpace=wrap;html=1;fillColor=#ffffc0;strokeColor=#ff0000;" vertex="1" parent="1">
                    <mxGeometry x="95" y="250" width="90" height="40" as="geometry"/>
                </mxCell>
                <mxCell id="8" value="no" style="edgeStyle=orthogonalEdgeStyle;html=1;align=left;verticalAlign=bottom;endArrow=open;endSize=8;strokeColor=#ff0000;" edge="1" source="7" parent="1" target="31">
                    <mxGeometry relative="1" as="geometry">
                        <mxPoint x="290" y="920" as="targetPoint"/>
                    </mxGeometry>
                </mxCell>
                <mxCell id="9" value="yes" style="edgeStyle=orthogonalEdgeStyle;html=1;align=left;verticalAlign=top;endArrow=open;endSize=8;strokeColor=#ff0000;entryX=0.5;entryY=0;entryDx=0;entryDy=0;" edge="1" source="7" parent="1" target="12">
                    <mxGeometry x="-1" relative="1" as="geometry">
                        <mxPoint x="140" y="340" as="targetPoint"/>
                    </mxGeometry>
                </mxCell>
                <mxCell id="10" value="检查借阅证" style="rounded=1;whiteSpace=wrap;html=1;arcSize=40;fontColor=#000000;fillColor=#ffffc0;strokeColor=#ff0000;" vertex="1" parent="1">
                    <mxGeometry x="80" y="170" width="120" height="40" as="geometry"/>
                </mxCell>
                <mxCell id="11" value="" style="edgeStyle=orthogonalEdgeStyle;html=1;verticalAlign=bottom;endArrow=open;endSize=8;strokeColor=#ff0000;fontColor=#000000;entryX=0.5;entryY=0;entryDx=0;entryDy=0;" edge="1" source="10" parent="1" target="7">
                    <mxGeometry relative="1" as="geometry">
                        <mxPoint x="120" y="330" as="targetPoint"/>
                    </mxGeometry>
                </mxCell>
                <mxCell id="12" value="检查未还图书信息" style="rounded=1;whiteSpace=wrap;html=1;arcSize=40;fontColor=#000000;fillColor=#ffffc0;strokeColor=#ff0000;" vertex="1" parent="1">
                    <mxGeometry x="80" y="340" width="120" height="40" as="geometry"/>
                </mxCell>
                <mxCell id="13" value="" style="edgeStyle=orthogonalEdgeStyle;html=1;verticalAlign=bottom;endArrow=open;endSize=8;strokeColor=#ff0000;fontColor=#000000;" edge="1" source="12" parent="1" target="14">
                    <mxGeometry relative="1" as="geometry">
                        <mxPoint x="140" y="420" as="targetPoint"/>
                    </mxGeometry>
                </mxCell>
                <mxCell id="14" value="无未还图书" style="rhombus;whiteSpace=wrap;html=1;fillColor=#ffffc0;strokeColor=#ff0000;fontColor=#000000;" vertex="1" parent="1">
                    <mxGeometry x="100" y="420" width="80" height="40" as="geometry"/>
                </mxCell>
                <mxCell id="15" value="no" style="edgeStyle=orthogonalEdgeStyle;html=1;align=left;verticalAlign=bottom;endArrow=open;endSize=8;strokeColor=#ff0000;fontColor=#000000;entryX=0.5;entryY=0;entryDx=0;entryDy=0;" edge="1" source="14" parent="1" target="31">
                    <mxGeometry relative="1" as="geometry">
                        <mxPoint x="300" y="630" as="targetPoint"/>
                    </mxGeometry>
                </mxCell>
                <mxCell id="16" value="yes" style="edgeStyle=orthogonalEdgeStyle;html=1;align=left;verticalAlign=top;endArrow=open;endSize=8;strokeColor=#ff0000;fontColor=#000000;" edge="1" source="14" parent="1" target="20">
                    <mxGeometry x="-1" relative="1" as="geometry">
                        <mxPoint x="140" y="560" as="targetPoint"/>
                    </mxGeometry>
                </mxCell>
                <mxCell id="20" value="显示图书信息" style="rounded=1;whiteSpace=wrap;html=1;arcSize=40;fontColor=#000000;fillColor=#ffffc0;strokeColor=#ff0000;" vertex="1" parent="1">
                    <mxGeometry x="80" y="500" width="120" height="40" as="geometry"/>
                </mxCell>
                <mxCell id="21" value="" style="edgeStyle=orthogonalEdgeStyle;html=1;verticalAlign=bottom;endArrow=open;endSize=8;strokeColor=#ff0000;fontColor=#000000;" edge="1" source="20" parent="1" target="24">
                    <mxGeometry relative="1" as="geometry">
                        <mxPoint x="140" y="600" as="targetPoint"/>
                    </mxGeometry>
                </mxCell>
                <mxCell id="24" value="检查图书是否可外借" style="rhombus;whiteSpace=wrap;html=1;fillColor=#ffffc0;strokeColor=#ff0000;fontColor=#000000;" vertex="1" parent="1">
                    <mxGeometry x="72.5" y="590" width="135" height="40" as="geometry"/>
                </mxCell>
                <mxCell id="25" value="no" style="edgeStyle=orthogonalEdgeStyle;html=1;align=left;verticalAlign=bottom;endArrow=open;endSize=8;strokeColor=#ff0000;fontColor=#000000;entryX=0.5;entryY=0;entryDx=0;entryDy=0;" edge="1" source="24" parent="1" target="31">
                    <mxGeometry relative="1" as="geometry">
                        <mxPoint x="300" y="910" as="targetPoint"/>
                    </mxGeometry>
                </mxCell>
                <mxCell id="26" value="yes" style="edgeStyle=orthogonalEdgeStyle;html=1;align=left;verticalAlign=top;endArrow=open;endSize=8;strokeColor=#ff0000;fontColor=#000000;" edge="1" source="24" parent="1" target="27">
                    <mxGeometry x="-1" relative="1" as="geometry">
                        <mxPoint x="195" y="860" as="targetPoint"/>
                    </mxGeometry>
                </mxCell>
                <mxCell id="27" value="更新书籍库存和读者信息" style="rounded=1;whiteSpace=wrap;html=1;arcSize=40;fontColor=#000000;fillColor=#ffffc0;strokeColor=#ff0000;" vertex="1" parent="1">
                    <mxGeometry x="80" y="680" width="120" height="40" as="geometry"/>
                </mxCell>
                <mxCell id="28" value="" style="edgeStyle=orthogonalEdgeStyle;html=1;verticalAlign=bottom;endArrow=open;endSize=8;strokeColor=#ff0000;fontColor=#000000;" edge="1" source="27" parent="1" target="29">
                    <mxGeometry relative="1" as="geometry">
                        <mxPoint x="170" y="960" as="targetPoint"/>
                    </mxGeometry>
                </mxCell>
                <mxCell id="29" value="借书成功" style="rounded=1;whiteSpace=wrap;html=1;arcSize=40;fontColor=#000000;fillColor=#ffffc0;strokeColor=#ff0000;" vertex="1" parent="1">
                    <mxGeometry x="80" y="760" width="120" height="40" as="geometry"/>
                </mxCell>
                <mxCell id="30" value="" style="edgeStyle=orthogonalEdgeStyle;html=1;verticalAlign=bottom;endArrow=open;endSize=8;strokeColor=#ff0000;fontColor=#000000;" edge="1" source="29" parent="1" target="31">
                    <mxGeometry relative="1" as="geometry">
                        <mxPoint x="185" y="1150" as="targetPoint"/>
                    </mxGeometry>
                </mxCell>
                <mxCell id="31" value="" style="ellipse;html=1;shape=endState;fillColor=#000000;strokeColor=#ff0000;fontColor=#000000;" vertex="1" parent="1">
                    <mxGeometry x="280" y="850" width="30" height="30" as="geometry"/>
                </mxCell>
                <mxCell id="33" value="还书" style="text;align=center;fontStyle=1;verticalAlign=middle;spacingLeft=3;spacingRight=3;strokeColor=none;rotatable=0;points=[[0,0.5],[1,0.5]];portConstraint=eastwest;" vertex="1" parent="1">
                    <mxGeometry x="420" y="70" width="80" height="26" as="geometry"/>
                </mxCell>
                <mxCell id="34" value="" style="ellipse;html=1;shape=startState;fillColor=#000000;strokeColor=#ff0000;fontColor=#000000;" vertex="1" parent="1">
                    <mxGeometry x="445" y="100" width="30" height="30" as="geometry"/>
                </mxCell>
                <mxCell id="35" value="" style="edgeStyle=orthogonalEdgeStyle;html=1;verticalAlign=bottom;endArrow=open;endSize=8;strokeColor=#ff0000;fontColor=#000000;" edge="1" source="34" parent="1" target="36">
                    <mxGeometry relative="1" as="geometry">
                        <mxPoint x="460" y="190" as="targetPoint"/>
                    </mxGeometry>
                </mxCell>
                <mxCell id="36" value="扫描图书条形码" style="rounded=1;whiteSpace=wrap;html=1;arcSize=40;fontColor=#000000;fillColor=#ffffc0;strokeColor=#ff0000;" vertex="1" parent="1">
                    <mxGeometry x="400" y="180" width="120" height="40" as="geometry"/>
                </mxCell>
                <mxCell id="37" value="" style="edgeStyle=orthogonalEdgeStyle;html=1;verticalAlign=bottom;endArrow=open;endSize=8;strokeColor=#ff0000;fontColor=#000000;" edge="1" source="36" parent="1" target="38">
                    <mxGeometry relative="1" as="geometry">
                        <mxPoint x="480" y="330" as="targetPoint"/>
                    </mxGeometry>
                </mxCell>
                <mxCell id="38" value="显示图书编号" style="rounded=1;whiteSpace=wrap;html=1;arcSize=40;fontColor=#000000;fillColor=#ffffc0;strokeColor=#ff0000;" vertex="1" parent="1">
                    <mxGeometry x="400" y="270" width="120" height="40" as="geometry"/>
                </mxCell>
                <mxCell id="39" value="" style="edgeStyle=orthogonalEdgeStyle;html=1;verticalAlign=bottom;endArrow=open;endSize=8;strokeColor=#ff0000;fontColor=#000000;" edge="1" source="38" parent="1" target="40">
                    <mxGeometry relative="1" as="geometry">
                        <mxPoint x="480" y="460" as="targetPoint"/>
                    </mxGeometry>
                </mxCell>
                <mxCell id="40" value="检查是否超期" style="rounded=1;whiteSpace=wrap;html=1;arcSize=40;fontColor=#000000;fillColor=#ffffc0;strokeColor=#ff0000;" vertex="1" parent="1">
                    <mxGeometry x="400" y="370" width="120" height="40" as="geometry"/>
                </mxCell>
                <mxCell id="41" value="" style="edgeStyle=orthogonalEdgeStyle;html=1;verticalAlign=bottom;endArrow=open;endSize=8;strokeColor=#ff0000;fontColor=#000000;" edge="1" source="40" parent="1" target="42">
                    <mxGeometry relative="1" as="geometry">
                        <mxPoint x="500" y="580" as="targetPoint"/>
                    </mxGeometry>
                </mxCell>
                <mxCell id="42" value="超期" style="rhombus;whiteSpace=wrap;html=1;fillColor=#ffffc0;strokeColor=#ff0000;fontColor=#000000;" vertex="1" parent="1">
                    <mxGeometry x="420" y="480" width="80" height="40" as="geometry"/>
                </mxCell>
                <mxCell id="43" value="no" style="edgeStyle=orthogonalEdgeStyle;html=1;align=left;verticalAlign=bottom;endArrow=open;endSize=8;strokeColor=#ff0000;fontColor=#000000;" edge="1" source="42" parent="1" target="45">
                    <mxGeometry x="-0.6" y="10" relative="1" as="geometry">
                        <mxPoint x="460" y="680" as="targetPoint"/>
                        <mxPoint as="offset"/>
                    </mxGeometry>
                </mxCell>
                <mxCell id="44" value="yes" style="edgeStyle=orthogonalEdgeStyle;html=1;align=left;verticalAlign=top;endArrow=open;endSize=8;strokeColor=#ff0000;fontColor=#000000;" edge="1" source="42" parent="1" target="50">
                    <mxGeometry relative="1" as="geometry">
                        <mxPoint x="610" y="610" as="targetPoint"/>
                    </mxGeometry>
                </mxCell>
                <mxCell id="45" value="更新读者和书籍信息" style="rounded=1;whiteSpace=wrap;html=1;arcSize=40;fontColor=#000000;fillColor=#ffffc0;strokeColor=#ff0000;" vertex="1" parent="1">
                    <mxGeometry x="400" y="585" width="120" height="40" as="geometry"/>
                </mxCell>
                <mxCell id="46" value="" style="edgeStyle=orthogonalEdgeStyle;html=1;verticalAlign=bottom;endArrow=open;endSize=8;strokeColor=#ff0000;fontColor=#000000;" edge="1" source="45" parent="1" target="47">
                    <mxGeometry relative="1" as="geometry">
                        <mxPoint x="500" y="800" as="targetPoint"/>
                    </mxGeometry>
                </mxCell>
                <mxCell id="47" value="还书成功" style="rounded=1;whiteSpace=wrap;html=1;arcSize=40;fontColor=#000000;fillColor=#ffffc0;strokeColor=#ff0000;" vertex="1" parent="1">
                    <mxGeometry x="400" y="740" width="120" height="40" as="geometry"/>
                </mxCell>
                <mxCell id="48" value="" style="edgeStyle=orthogonalEdgeStyle;html=1;verticalAlign=bottom;endArrow=open;endSize=8;strokeColor=#ff0000;fontColor=#000000;" edge="1" source="47" parent="1" target="49">
                    <mxGeometry relative="1" as="geometry">
                        <mxPoint x="505" y="930" as="targetPoint"/>
                    </mxGeometry>
                </mxCell>
                <mxCell id="49" value="" style="ellipse;html=1;shape=endState;fillColor=#000000;strokeColor=#ff0000;fontColor=#000000;" vertex="1" parent="1">
                    <mxGeometry x="445" y="850" width="30" height="30" as="geometry"/>
                </mxCell>
                <mxCell id="50" value="缴纳罚金" style="rounded=1;whiteSpace=wrap;html=1;arcSize=40;fontColor=#000000;fillColor=#ffffc0;strokeColor=#ff0000;" vertex="1" parent="1">
                    <mxGeometry x="560" y="590" width="120" height="40" as="geometry"/>
                </mxCell>
                <mxCell id="51" value="" style="edgeStyle=orthogonalEdgeStyle;html=1;verticalAlign=bottom;endArrow=open;endSize=8;strokeColor=#ff0000;fontColor=#000000;entryX=0.5;entryY=0;entryDx=0;entryDy=0;" edge="1" source="50" parent="1" target="47">
                    <mxGeometry relative="1" as="geometry">
                        <mxPoint x="620" y="730" as="targetPoint"/>
                        <Array as="points">
                            <mxPoint x="620" y="690"/>
                            <mxPoint x="460" y="690"/>
                        </Array>
                    </mxGeometry>
                </mxCell>
                <mxCell id="52" value="选课系统" style="text;align=center;fontStyle=1;verticalAlign=middle;spacingLeft=3;spacingRight=3;strokeColor=none;rotatable=0;points=[[0,0.5],[1,0.5]];portConstraint=eastwest;" vertex="1" parent="1">
                    <mxGeometry x="860" y="70" width="80" height="26" as="geometry"/>
                </mxCell>
                <mxCell id="55" value="外部系统" style="shape=umlFrame;whiteSpace=wrap;html=1;fontColor=#000000;" vertex="1" parent="1">
                    <mxGeometry x="750" y="120" width="190" height="650" as="geometry"/>
                </mxCell>
                <mxCell id="58" value="学生" style="shape=umlFrame;whiteSpace=wrap;html=1;fontColor=#000000;" vertex="1" parent="1">
                    <mxGeometry x="940" y="120" width="190" height="650" as="geometry"/>
                </mxCell>
                <mxCell id="59" value="" style="ellipse;html=1;shape=startState;fillColor=#000000;strokeColor=#ff0000;fontColor=#000000;" vertex="1" parent="1">
                    <mxGeometry x="1020" y="130" width="30" height="30" as="geometry"/>
                </mxCell>
                <mxCell id="60" value="" style="edgeStyle=orthogonalEdgeStyle;html=1;verticalAlign=bottom;endArrow=open;endSize=8;strokeColor=#ff0000;fontColor=#000000;" edge="1" source="59" parent="1" target="61">
                    <mxGeometry relative="1" as="geometry">
                        <mxPoint x="1035" y="220" as="targetPoint"/>
                    </mxGeometry>
                </mxCell>
                <mxCell id="61" value="选课" style="rounded=1;whiteSpace=wrap;html=1;arcSize=40;fontColor=#000000;fillColor=#ffffc0;strokeColor=#ff0000;" vertex="1" parent="1">
                    <mxGeometry x="975" y="200" width="120" height="40" as="geometry"/>
                </mxCell>
                <mxCell id="62" value="" style="edgeStyle=orthogonalEdgeStyle;html=1;verticalAlign=bottom;endArrow=open;endSize=8;strokeColor=#ff0000;fontColor=#000000;" edge="1" source="61" parent="1" target="63">
                    <mxGeometry relative="1" as="geometry">
                        <mxPoint x="1050" y="350" as="targetPoint"/>
                    </mxGeometry>
                </mxCell>
                <mxCell id="63" value="" style="rhombus;whiteSpace=wrap;html=1;fillColor=#ffffc0;strokeColor=#ff0000;fontColor=#000000;" vertex="1" parent="1">
                    <mxGeometry x="995" y="300" width="80" height="40" as="geometry"/>
                </mxCell>
                <mxCell id="64" value="" style="edgeStyle=orthogonalEdgeStyle;html=1;align=left;verticalAlign=bottom;endArrow=open;endSize=8;strokeColor=#ff0000;fontColor=#000000;entryX=1;entryY=0.5;entryDx=0;entryDy=0;" edge="1" source="63" parent="1" target="75">
                    <mxGeometry x="-1" relative="1" as="geometry">
                        <mxPoint x="1200" y="390" as="targetPoint"/>
                        <Array as="points">
                            <mxPoint x="1120" y="320"/>
                            <mxPoint x="1120" y="645"/>
                        </Array>
                    </mxGeometry>
                </mxCell>
                <mxCell id="65" value="" style="edgeStyle=orthogonalEdgeStyle;html=1;align=left;verticalAlign=top;endArrow=open;endSize=8;strokeColor=#ff0000;fontColor=#000000;entryX=1.023;entryY=0.492;entryDx=0;entryDy=0;entryPerimeter=0;" edge="1" source="63" parent="1" target="66">
                    <mxGeometry x="-1" relative="1" as="geometry">
                        <mxPoint x="1060" y="470" as="targetPoint"/>
                    </mxGeometry>
                </mxCell>
                <mxCell id="66" value="" style="html=1;points=[];perimeter=orthogonalPerimeter;fontColor=#000000;rotation=-90;" vertex="1" parent="1">
                    <mxGeometry x="840" y="330" width="10" height="80" as="geometry"/>
                </mxCell>
                <mxCell id="67" value="返回消息" style="rounded=1;whiteSpace=wrap;html=1;arcSize=40;fontColor=#000000;fillColor=#ffffc0;strokeColor=#ff0000;" vertex="1" parent="1">
                    <mxGeometry x="985" y="370" width="120" height="40" as="geometry"/>
                </mxCell>
                <mxCell id="68" value="" style="edgeStyle=orthogonalEdgeStyle;html=1;verticalAlign=bottom;endArrow=open;endSize=8;strokeColor=#ff0000;fontColor=#000000;" edge="1" source="67" parent="1" target="69">
                    <mxGeometry relative="1" as="geometry">
                        <mxPoint x="1050" y="470" as="targetPoint"/>
                    </mxGeometry>
                </mxCell>
                <mxCell id="69" value="页面刷新" style="rounded=1;whiteSpace=wrap;html=1;arcSize=40;fontColor=#000000;fillColor=#ffffc0;strokeColor=#ff0000;" vertex="1" parent="1">
                    <mxGeometry x="985" y="460" width="120" height="40" as="geometry"/>
                </mxCell>
                <mxCell id="70" value="" style="edgeStyle=orthogonalEdgeStyle;html=1;verticalAlign=bottom;endArrow=open;endSize=8;strokeColor=#ff0000;fontColor=#000000;" edge="1" source="69" parent="1" target="73">
                    <mxGeometry relative="1" as="geometry">
                        <mxPoint x="1050" y="580" as="targetPoint"/>
                    </mxGeometry>
                </mxCell>
                <mxCell id="71" value="存入数据到外部系统" style="rounded=1;whiteSpace=wrap;html=1;arcSize=40;fontColor=#000000;fillColor=#ffffc0;strokeColor=#ff0000;" vertex="1" parent="1">
                    <mxGeometry x="780" y="450" width="120" height="40" as="geometry"/>
                </mxCell>
                <mxCell id="72" value="" style="edgeStyle=orthogonalEdgeStyle;html=1;verticalAlign=bottom;endArrow=open;endSize=8;strokeColor=#ff0000;fontColor=#000000;" edge="1" source="71" parent="1" target="73">
                    <mxGeometry relative="1" as="geometry">
                        <mxPoint x="850" y="540" as="targetPoint"/>
                        <Array as="points">
                            <mxPoint x="840" y="530"/>
                            <mxPoint x="1045" y="530"/>
                        </Array>
                    </mxGeometry>
                </mxCell>
                <mxCell id="73" value="" style="html=1;points=[];perimeter=orthogonalPerimeter;fontColor=#000000;rotation=-90;" vertex="1" parent="1">
                    <mxGeometry x="1040" y="550" width="10" height="80" as="geometry"/>
                </mxCell>
                <mxCell id="74" value="" style="ellipse;html=1;shape=endState;fillColor=#000000;strokeColor=#ff0000;fontColor=#000000;" vertex="1" parent="1">
                    <mxGeometry x="1030" y="720" width="30" height="30" as="geometry"/>
                </mxCell>
                <mxCell id="75" value="" style="rhombus;whiteSpace=wrap;html=1;fillColor=#ffffc0;strokeColor=#ff0000;fontColor=#000000;" vertex="1" parent="1">
                    <mxGeometry x="1005" y="625" width="80" height="40" as="geometry"/>
                </mxCell>
                <mxCell id="77" value="" style="edgeStyle=orthogonalEdgeStyle;html=1;align=left;verticalAlign=top;endArrow=open;endSize=8;strokeColor=#ff0000;fontColor=#000000;" edge="1" source="75" parent="1" target="74">
                    <mxGeometry x="-1" relative="1" as="geometry">
                        <mxPoint x="1060" y="725" as="targetPoint"/>
                    </mxGeometry>
                </mxCell>
                <mxCell id="81" value="" style="edgeStyle=orthogonalEdgeStyle;html=1;align=left;verticalAlign=top;endArrow=open;endSize=8;strokeColor=#ff0000;fontColor=#000000;exitX=0.056;exitY=0.44;exitDx=0;exitDy=0;exitPerimeter=0;" edge="1" parent="1" source="66" target="71">
                    <mxGeometry relative="1" as="geometry">
                        <mxPoint x="854.3600000000001" y="374.76999999999987" as="targetPoint"/>
                        <mxPoint x="840" y="380" as="sourcePoint"/>
                    </mxGeometry>
                </mxCell>
                <mxCell id="82" value="" style="edgeStyle=orthogonalEdgeStyle;html=1;align=left;verticalAlign=top;endArrow=open;endSize=8;strokeColor=#ff0000;fontColor=#000000;exitX=0.02;exitY=0.445;exitDx=0;exitDy=0;exitPerimeter=0;" edge="1" parent="1" source="66" target="67">
                    <mxGeometry relative="1" as="geometry">
                        <mxPoint x="850" y="460" as="targetPoint"/>
                        <mxPoint x="850.2" y="384.43999999999994" as="sourcePoint"/>
                    </mxGeometry>
                </mxCell>
                <mxCell id="84" value="" style="edgeStyle=orthogonalEdgeStyle;html=1;align=left;verticalAlign=top;endArrow=open;endSize=8;strokeColor=#ff0000;fontColor=#000000;" edge="1" parent="1" source="73" target="75">
                    <mxGeometry relative="1" as="geometry">
                        <mxPoint x="1055" y="730" as="targetPoint"/>
                        <mxPoint x="1055" y="675" as="sourcePoint"/>
                    </mxGeometry>
                </mxCell>
            </root>
        </mxGraphModel>
    </diagram>
</mxfile>